{
	"asset":{
		"generator":"Khronos glTF Blender I/O v4.1.63",
		"version":"2.0"
	},
	"scene":0,
	"scenes":[
		{
			"name":"Scene",
			"nodes":[
				9
			]
		}
	],
	"nodes":[
		{
			"mesh":0,
			"name":"Cylinder005",
			"rotation":[
				-0.43890708684921265,
				-0.017936447635293007,
				0.8983205556869507,
				0.007686462718993425
			],
			"scale":[
				0.7224485278129578,
				0.7554391026496887,
				0.735687792301178
			],
			"translation":[
				-0.16095679998397827,
				-1.7802011966705322,
				-0.03945110738277435
			]
		},
		{
			"children":[
				0
			],
			"mesh":1,
			"name":"Cylinder004",
			"rotation":[
				-0.002059347927570343,
				-0.055252302438020706,
				0.0012288258876651525,
				0.9984696507453918
			],
			"scale":[
				0.7614421844482422,
				0.7614420056343079,
				0.8199706077575684
			],
			"translation":[
				-0.02606389671564102,
				-0.7232136130332947,
				0
			]
		},
		{
			"children":[
				1
			],
			"mesh":2,
			"name":"Plane",
			"rotation":[
				0.4597267806529999,
				-0.5430392622947693,
				0.5377817749977112,
				0.4522723853588104
			],
			"scale":[
				1.2764054536819458,
				1.2764058113098145,
				1.2764053344726562
			],
			"translation":[
				1.0118786096572876,
				0.055523913353681564,
				0.19069406390190125
			]
		},
		{
			"children":[
				2
			],
			"mesh":3,
			"name":"Cylinder002",
			"rotation":[
				-0.5607660412788391,
				-0.4381904602050781,
				0.43255695700645447,
				0.5535567402839661
			],
			"scale":[
				1.3176666498184204,
				1.317667007446289,
				1.31766676902771
			],
			"translation":[
				0.019654737785458565,
				1.5784717798233032,
				0.20574277639389038
			]
		},
		{
			"children":[
				3
			],
			"mesh":4,
			"name":"Circle002",
			"scale":[
				0.8144635558128357,
				0.8144634366035461,
				0.8144635558128357
			],
			"translation":[
				-0.010492183268070221,
				0.44395574927330017,
				0.08219777792692184
			]
		},
		{
			"children":[
				4
			],
			"mesh":5,
			"name":"Circle001",
			"rotation":[
				0.006769228260964155,
				-0.0021317924838513136,
				-0.7017534971237183,
				0.7123844623565674
			],
			"scale":[
				0.9620816111564636,
				0.9620816111564636,
				0.9620815515518188
			],
			"translation":[
				9.579916954040527,
				-0.00921747088432312,
				0.09797823429107666
			]
		},
		{
			"children":[
				5
			],
			"mesh":6,
			"name":"Cube",
			"rotation":[
				0.7121037840843201,
				0.0018416466191411018,
				-0.00872127152979374,
				0.702017605304718
			],
			"scale":[
				0.4568682610988617,
				0.45686808228492737,
				0.45686808228492737
			],
			"translation":[
				1.752488613128662,
				-3.1076345443725586,
				-0.018215537071228027
			]
		},
		{
			"children":[
				6
			],
			"mesh":7,
			"name":"Cylinder001",
			"rotation":[
				-0.7025485038757324,
				-0.004950250498950481,
				-0.00211897655390203,
				0.7116155028343201
			],
			"scale":[
				1.0417287349700928,
				1.0417289733886719,
				1.0417289733886719
			],
			"translation":[
				-0.012345759198069572,
				2.971310615539551,
				0.06372730433940887
			]
		},
		{
			"children":[
				7
			],
			"mesh":8,
			"name":"Cylinder",
			"rotation":[
				-0.02014787495136261,
				0.020602665841579437,
				-0.0037836874835193157,
				0.9995775818824768
			],
			"scale":[
				0.7655923366546631,
				0.7655922770500183,
				0.7655921578407288
			],
			"translation":[
				0.003282389370724559,
				0.9461846351623535,
				-0.017836719751358032
			]
		},
		{
			"children":[
				8
			],
			"mesh":9,
			"name":"Circle",
			"rotation":[
				0.0094166100025177,
				-0.004378357902169228,
				0.0017755551962181926,
				0.9999445080757141
			]
		}
	],
	"materials":[
		{
			"doubleSided":true,
			"name":"Material.008",
			"pbrMetallicRoughness":{
				"baseColorFactor":[
					0,
					0,
					0,
					1
				],
				"metallicFactor":0,
				"roughnessFactor":0.5
			}
		},
		{
			"doubleSided":true,
			"emissiveFactor":[
				0.0402776338160038,
				0.0402776338160038,
				0.0402776338160038
			],
			"name":"Material.010",
			"pbrMetallicRoughness":{
				"baseColorFactor":[
					0,
					0,
					0,
					1
				]
			}
		},
		{
			"doubleSided":true,
			"emissiveFactor":[
				0.030085910111665726,
				0.030085910111665726,
				0.030085910111665726
			],
			"name":"Material.006",
			"pbrMetallicRoughness":{
				"baseColorFactor":[
					0,
					0,
					0,
					1
				]
			}
		},
		{
			"doubleSided":true,
			"name":"Material.007",
			"pbrMetallicRoughness":{
				"baseColorFactor":[
					0.05224400758743286,
					0.05224400758743286,
					0.05224400758743286,
					1
				],
				"metallicFactor":0,
				"roughnessFactor":0.5
			}
		},
		{
			"doubleSided":true,
			"name":"Material.009",
			"pbrMetallicRoughness":{
				"baseColorFactor":[
					0.009952202439308167,
					0.009952202439308167,
					0.009952202439308167,
					1
				],
				"metallicFactor":0,
				"roughnessFactor":0.5
			}
		},
		{
			"doubleSided":true,
			"name":"Material.002",
			"pbrMetallicRoughness":{
				"baseColorFactor":[
					0.030086029320955276,
					0.030086029320955276,
					0.030086029320955276,
					1
				],
				"metallicFactor":0,
				"roughnessFactor":0.5
			}
		},
		{
			"doubleSided":true,
			"name":"Material.004",
			"pbrMetallicRoughness":{
				"baseColorFactor":[
					0.8000229597091675,
					0.19748517870903015,
					0.004834210500121117,
					1
				],
				"metallicFactor":0,
				"roughnessFactor":0.5
			}
		},
		{
			"doubleSided":true,
			"name":"Material.003",
			"pbrMetallicRoughness":{
				"baseColorFactor":[
					0.8000315427780151,
					0.23368248343467712,
					0,
					1
				],
				"metallicFactor":0,
				"roughnessFactor":0.5
			}
		},
		{
			"doubleSided":true,
			"emissiveFactor":[
				1,
				0.24763090908527374,
				0.00014510034816339612
			],
			"name":"Material.001",
			"pbrMetallicRoughness":{
				"baseColorFactor":[
					0,
					0,
					0,
					1
				]
			}
		},
		{
			"doubleSided":true,
			"name":"Material",
			"pbrMetallicRoughness":{
				"baseColorFactor":[
					0,
					0,
					0,
					1
				],
				"metallicFactor":0,
				"roughnessFactor":0.5
			}
		}
	],
	"meshes":[
		{
			"name":"Cylinder.004",
			"primitives":[
				{
					"attributes":{
						"POSITION":0,
						"NORMAL":1,
						"TEXCOORD_0":2
					},
					"indices":3,
					"material":0
				}
			]
		},
		{
			"name":"Cylinder.003",
			"primitives":[
				{
					"attributes":{
						"POSITION":4,
						"NORMAL":5,
						"TEXCOORD_0":6
					},
					"indices":7,
					"material":1
				}
			]
		},
		{
			"name":"Plane",
			"primitives":[
				{
					"attributes":{
						"POSITION":8,
						"NORMAL":9,
						"TEXCOORD_0":10
					},
					"indices":11,
					"material":2
				}
			]
		},
		{
			"name":"Cylinder.002",
			"primitives":[
				{
					"attributes":{
						"POSITION":12,
						"NORMAL":13,
						"TEXCOORD_0":14
					},
					"indices":15,
					"material":3
				}
			]
		},
		{
			"name":"Circle.004",
			"primitives":[
				{
					"attributes":{
						"POSITION":16,
						"NORMAL":17,
						"TEXCOORD_0":18
					},
					"indices":19,
					"material":4
				}
			]
		},
		{
			"name":"Circle.003",
			"primitives":[
				{
					"attributes":{
						"POSITION":20,
						"NORMAL":21,
						"TEXCOORD_0":22
					},
					"indices":23,
					"material":5
				}
			]
		},
		{
			"name":"Cube.002",
			"primitives":[
				{
					"attributes":{
						"POSITION":24,
						"NORMAL":25,
						"TEXCOORD_0":26
					},
					"indices":27,
					"material":6
				}
			]
		},
		{
			"name":"Cylinder.001",
			"primitives":[
				{
					"attributes":{
						"POSITION":28,
						"NORMAL":29,
						"TEXCOORD_0":30
					},
					"indices":31,
					"material":7
				}
			]
		},
		{
			"name":"Cylinder",
			"primitives":[
				{
					"attributes":{
						"POSITION":32,
						"NORMAL":33,
						"TEXCOORD_0":34
					},
					"indices":7,
					"material":8
				}
			]
		},
		{
			"name":"Circle",
			"primitives":[
				{
					"attributes":{
						"POSITION":35,
						"NORMAL":36,
						"TEXCOORD_0":37
					},
					"indices":38,
					"material":9
				}
			]
		}
	],
	"accessors":[
		{
			"bufferView":0,
			"componentType":5126,
			"count":244,
			"max":[
				1,
				3.4045276641845703,
				1
			],
			"min":[
				-1,
				-1,
				-1
			],
			"type":"VEC3"
		},
		{
			"bufferView":1,
			"componentType":5126,
			"count":244,
			"type":"VEC3"
		},
		{
			"bufferView":2,
			"componentType":5126,
			"count":244,
			"type":"VEC2"
		},
		{
			"bufferView":3,
			"componentType":5123,
			"count":456,
			"type":"SCALAR"
		},
		{
			"bufferView":4,
			"componentType":5126,
			"count":192,
			"max":[
				1,
				1,
				1
			],
			"min":[
				-1,
				-1,
				-1
			],
			"type":"VEC3"
		},
		{
			"bufferView":5,
			"componentType":5126,
			"count":192,
			"type":"VEC3"
		},
		{
			"bufferView":6,
			"componentType":5126,
			"count":192,
			"type":"VEC2"
		},
		{
			"bufferView":7,
			"componentType":5123,
			"count":372,
			"type":"SCALAR"
		},
		{
			"bufferView":8,
			"componentType":5126,
			"count":16,
			"max":[
				1.2745592594146729,
				1.4427636861801147,
				1.1869548559188843
			],
			"min":[
				-1.1869549751281738,
				-1.4901154088420299e-08,
				-1.1869548559188843
			],
			"type":"VEC3"
		},
		{
			"bufferView":9,
			"componentType":5126,
			"count":16,
			"type":"VEC3"
		},
		{
			"bufferView":10,
			"componentType":5126,
			"count":16,
			"type":"VEC2"
		},
		{
			"bufferView":11,
			"componentType":5123,
			"count":30,
			"type":"SCALAR"
		},
		{
			"bufferView":12,
			"componentType":5126,
			"count":192,
			"max":[
				1,
				1.4487338066101074,
				1.005806565284729
			],
			"min":[
				-1,
				-1.4060262441635132,
				-1.0052540302276611
			],
			"type":"VEC3"
		},
		{
			"bufferView":13,
			"componentType":5126,
			"count":192,
			"type":"VEC3"
		},
		{
			"bufferView":14,
			"componentType":5126,
			"count":192,
			"type":"VEC2"
		},
		{
			"bufferView":15,
			"componentType":5123,
			"count":372,
			"type":"SCALAR"
		},
		{
			"bufferView":16,
			"componentType":5126,
			"count":192,
			"max":[
				1,
				0.2656800448894501,
				1
			],
			"min":[
				-1,
				0,
				-1
			],
			"type":"VEC3"
		},
		{
			"bufferView":17,
			"componentType":5126,
			"count":192,
			"type":"VEC3"
		},
		{
			"bufferView":18,
			"componentType":5126,
			"count":192,
			"type":"VEC2"
		},
		{
			"bufferView":19,
			"componentType":5123,
			"count":372,
			"type":"SCALAR"
		},
		{
			"bufferView":20,
			"componentType":5126,
			"count":192,
			"max":[
				1,
				0.44394388794898987,
				1
			],
			"min":[
				-1,
				0,
				-1
			],
			"type":"VEC3"
		},
		{
			"bufferView":21,
			"componentType":5126,
			"count":192,
			"type":"VEC3"
		},
		{
			"bufferView":22,
			"componentType":5126,
			"count":192,
			"type":"VEC2"
		},
		{
			"bufferView":23,
			"componentType":5123,
			"count":372,
			"type":"SCALAR"
		},
		{
			"bufferView":24,
			"componentType":5126,
			"count":40,
			"max":[
				9.536710739135742,
				1,
				1
			],
			"min":[
				-7.212230205535889,
				-1,
				-1
			],
			"type":"VEC3"
		},
		{
			"bufferView":25,
			"componentType":5126,
			"count":40,
			"type":"VEC3"
		},
		{
			"bufferView":26,
			"componentType":5126,
			"count":40,
			"type":"VEC2"
		},
		{
			"bufferView":27,
			"componentType":5123,
			"count":84,
			"type":"SCALAR"
		},
		{
			"bufferView":28,
			"componentType":5126,
			"count":216,
			"max":[
				1,
				1,
				1
			],
			"min":[
				-1,
				-3.808974504470825,
				-1.0119839906692505
			],
			"type":"VEC3"
		},
		{
			"bufferView":29,
			"componentType":5126,
			"count":216,
			"type":"VEC3"
		},
		{
			"bufferView":30,
			"componentType":5126,
			"count":216,
			"type":"VEC2"
		},
		{
			"bufferView":31,
			"componentType":5123,
			"count":408,
			"type":"SCALAR"
		},
		{
			"bufferView":32,
			"componentType":5126,
			"count":192,
			"max":[
				1,
				1.929272174835205,
				1
			],
			"min":[
				-1,
				-1,
				-1
			],
			"type":"VEC3"
		},
		{
			"bufferView":33,
			"componentType":5126,
			"count":192,
			"type":"VEC3"
		},
		{
			"bufferView":34,
			"componentType":5126,
			"count":192,
			"type":"VEC2"
		},
		{
			"bufferView":35,
			"componentType":5126,
			"count":192,
			"max":[
				1,
				0.20577175915241241,
				1
			],
			"min":[
				-1,
				0,
				-1
			],
			"type":"VEC3"
		},
		{
			"bufferView":36,
			"componentType":5126,
			"count":192,
			"type":"VEC3"
		},
		{
			"bufferView":37,
			"componentType":5126,
			"count":192,
			"type":"VEC2"
		},
		{
			"bufferView":38,
			"componentType":5123,
			"count":372,
			"type":"SCALAR"
		}
	],
	"bufferViews":[
		{
			"buffer":0,
			"byteLength":2928,
			"byteOffset":0,
			"target":34962
		},
		{
			"buffer":0,
			"byteLength":2928,
			"byteOffset":2928,
			"target":34962
		},
		{
			"buffer":0,
			"byteLength":1952,
			"byteOffset":5856,
			"target":34962
		},
		{
			"buffer":0,
			"byteLength":912,
			"byteOffset":7808,
			"target":34963
		},
		{
			"buffer":0,
			"byteLength":2304,
			"byteOffset":8720,
			"target":34962
		},
		{
			"buffer":0,
			"byteLength":2304,
			"byteOffset":11024,
			"target":34962
		},
		{
			"buffer":0,
			"byteLength":1536,
			"byteOffset":13328,
			"target":34962
		},
		{
			"buffer":0,
			"byteLength":744,
			"byteOffset":14864,
			"target":34963
		},
		{
			"buffer":0,
			"byteLength":192,
			"byteOffset":15608,
			"target":34962
		},
		{
			"buffer":0,
			"byteLength":192,
			"byteOffset":15800,
			"target":34962
		},
		{
			"buffer":0,
			"byteLength":128,
			"byteOffset":15992,
			"target":34962
		},
		{
			"buffer":0,
			"byteLength":60,
			"byteOffset":16120,
			"target":34963
		},
		{
			"buffer":0,
			"byteLength":2304,
			"byteOffset":16180,
			"target":34962
		},
		{
			"buffer":0,
			"byteLength":2304,
			"byteOffset":18484,
			"target":34962
		},
		{
			"buffer":0,
			"byteLength":1536,
			"byteOffset":20788,
			"target":34962
		},
		{
			"buffer":0,
			"byteLength":744,
			"byteOffset":22324,
			"target":34963
		},
		{
			"buffer":0,
			"byteLength":2304,
			"byteOffset":23068,
			"target":34962
		},
		{
			"buffer":0,
			"byteLength":2304,
			"byteOffset":25372,
			"target":34962
		},
		{
			"buffer":0,
			"byteLength":1536,
			"byteOffset":27676,
			"target":34962
		},
		{
			"buffer":0,
			"byteLength":744,
			"byteOffset":29212,
			"target":34963
		},
		{
			"buffer":0,
			"byteLength":2304,
			"byteOffset":29956,
			"target":34962
		},
		{
			"buffer":0,
			"byteLength":2304,
			"byteOffset":32260,
			"target":34962
		},
		{
			"buffer":0,
			"byteLength":1536,
			"byteOffset":34564,
			"target":34962
		},
		{
			"buffer":0,
			"byteLength":744,
			"byteOffset":36100,
			"target":34963
		},
		{
			"buffer":0,
			"byteLength":480,
			"byteOffset":36844,
			"target":34962
		},
		{
			"buffer":0,
			"byteLength":480,
			"byteOffset":37324,
			"target":34962
		},
		{
			"buffer":0,
			"byteLength":320,
			"byteOffset":37804,
			"target":34962
		},
		{
			"buffer":0,
			"byteLength":168,
			"byteOffset":38124,
			"target":34963
		},
		{
			"buffer":0,
			"byteLength":2592,
			"byteOffset":38292,
			"target":34962
		},
		{
			"buffer":0,
			"byteLength":2592,
			"byteOffset":40884,
			"target":34962
		},
		{
			"buffer":0,
			"byteLength":1728,
			"byteOffset":43476,
			"target":34962
		},
		{
			"buffer":0,
			"byteLength":816,
			"byteOffset":45204,
			"target":34963
		},
		{
			"buffer":0,
			"byteLength":2304,
			"byteOffset":46020,
			"target":34962
		},
		{
			"buffer":0,
			"byteLength":2304,
			"byteOffset":48324,
			"target":34962
		},
		{
			"buffer":0,
			"byteLength":1536,
			"byteOffset":50628,
			"target":34962
		},
		{
			"buffer":0,
			"byteLength":2304,
			"byteOffset":52164,
			"target":34962
		},
		{
			"buffer":0,
			"byteLength":2304,
			"byteOffset":54468,
			"target":34962
		},
		{
			"buffer":0,
			"byteLength":1536,
			"byteOffset":56772,
			"target":34962
		},
		{
			"buffer":0,
			"byteLength":744,
			"byteOffset":58308,
			"target":34963
		}
	],
	"buffers":[
		{
			"byteLength":59052,
			"uri":"stanford.bin"
		}
	]
}
